<svg width="375" height="44" viewBox="0 0 375 44" fill="none" xmlns="http://www.w3.org/2000/svg">
<rect width="375" height="44" fill="white"/>
<path d="M29.7046 28H31.5943V17.4312H29.7119L26.9507 19.3647V21.1812L29.5801 19.3354H29.7046V28ZM35.7195 26.5425C36.4153 26.5425 36.8914 26.0444 36.8914 25.3853C36.8914 24.7188 36.4153 24.228 35.7195 24.228C35.031 24.228 34.5476 24.7188 34.5476 25.3853C34.5476 26.0444 35.031 26.5425 35.7195 26.5425ZM35.7195 21.1958C36.4153 21.1958 36.8914 20.7051 36.8914 20.0459C36.8914 19.3794 36.4153 18.8887 35.7195 18.8887C35.031 18.8887 34.5476 19.3794 34.5476 20.0459C34.5476 20.7051 35.031 21.1958 35.7195 21.1958ZM39.0098 20.5732H40.7822C40.7822 19.4746 41.5146 18.7202 42.6646 18.7202C43.7705 18.7202 44.4297 19.4453 44.4297 20.3901C44.4297 21.1812 44.1074 21.6865 42.7744 23.0195L39.1123 26.689V28H46.4512V26.396H41.6758V26.2715L43.9463 24.0596C45.7627 22.3018 46.2974 21.4375 46.2974 20.207C46.2974 18.4492 44.8691 17.1675 42.7671 17.1675C40.5625 17.1675 39.0098 18.5664 39.0098 20.5732ZM52.2024 28.2637C54.7292 28.2637 56.2307 26.2129 56.2307 22.7192C56.2307 19.2109 54.7073 17.1675 52.2024 17.1675C49.6902 17.1675 48.1667 19.2109 48.1667 22.7046C48.1667 26.2129 49.6682 28.2637 52.2024 28.2637ZM52.2024 26.6963C50.8621 26.6963 50.0784 25.3267 50.0784 22.7046C50.0784 20.1045 50.8767 18.7422 52.2024 18.7422C53.5281 18.7422 54.3191 20.0972 54.3191 22.7046C54.3191 25.3267 53.5427 26.6963 52.2024 26.6963Z" fill="black"/>
<path opacity="0.35" fill-rule="evenodd" clip-rule="evenodd" d="M338.5 17.5H357.5C358.881 17.5 360 18.6193 360 20V26.5C360 27.8807 358.881 29 357.5 29H338.5C337.119 29 336 27.8807 336 26.5V20C336 18.6193 337.119 17.5 338.5 17.5ZM338.5 18.5C337.672 18.5 337 19.1716 337 20V26.5C337 27.3284 337.672 28 338.5 28H357.5C358.328 28 359 27.3284 359 26.5V20C359 19.1716 358.328 18.5 357.5 18.5H338.5Z" fill="black"/>
<path opacity="0.4" fill-rule="evenodd" clip-rule="evenodd" d="M361 20.7998C361.89 21.255 362.5 22.1813 362.5 23.2499C362.5 24.3186 361.89 25.2449 361 25.7001V20.7998Z" fill="black"/>
<path fill-rule="evenodd" clip-rule="evenodd" d="M339 19.5H357C357.552 19.5 358 19.9477 358 20.5V26C358 26.5523 357.552 27 357 27H339C338.448 27 338 26.5523 338 26V20.5C338 19.9477 338.448 19.5 339 19.5Z" fill="black"/>
<path fill-rule="evenodd" clip-rule="evenodd" d="M329.983 20.5229C328.072 18.8906 325.657 18 323.133 18C320.601 18 318.18 18.8959 316.266 20.5371L316.104 20.6765C315.972 20.7892 315.965 20.9895 316.087 21.1118L317.214 22.2356C317.324 22.3447 317.498 22.3521 317.617 22.2527L317.756 22.1354C319.263 20.8694 321.155 20.1804 323.133 20.1804C325.104 20.1804 326.989 20.8647 328.494 22.1228L328.634 22.2395C328.752 22.3385 328.926 22.3308 329.036 22.2219L330.163 21.098C330.285 20.9756 330.278 20.7749 330.146 20.6623L329.983 20.5229ZM323.133 21.4698C324.724 21.4698 326.251 21.9975 327.495 22.9749L327.671 23.113C327.811 23.2231 327.824 23.4306 327.697 23.5564L326.567 24.6841C326.462 24.7884 326.297 24.8003 326.178 24.7122L326.04 24.6098C325.2 23.9852 324.186 23.6501 323.133 23.6501C322.073 23.6501 321.053 23.9893 320.21 24.6211L320.072 24.7245C319.954 24.8133 319.787 24.8016 319.683 24.697L318.552 23.5698C318.426 23.4442 318.438 23.2373 318.578 23.1269L318.753 22.9887C320 22.0027 321.534 21.4698 323.133 21.4698ZM323.133 24.9396C323.772 24.9396 324.394 25.1076 324.941 25.4281L325.163 25.5579C325.331 25.6563 325.361 25.8867 325.223 26.0242L323.329 27.913C323.212 28.029 323.024 28.029 322.907 27.913L321.026 26.0363C320.888 25.8994 320.917 25.6702 321.084 25.5711L321.303 25.4406C321.856 25.1121 322.485 24.9396 323.133 24.9396Z" fill="black"/>
<path opacity="0.25" fill-rule="evenodd" clip-rule="evenodd" d="M309.5 18H310.5C311.052 18 311.5 18.4477 311.5 19V27C311.5 27.5523 311.052 28 310.5 28H309.5C308.948 28 308.5 27.5523 308.5 27V19C308.5 18.4477 308.948 18 309.5 18Z" fill="black"/>
<path fill-rule="evenodd" clip-rule="evenodd" d="M306 20H305C304.448 20 304 20.4477 304 21V27C304 27.5523 304.448 28 305 28H306C306.552 28 307 27.5523 307 27V21C307 20.4477 306.552 20 306 20ZM300.5 22H301.5C302.052 22 302.5 22.4477 302.5 23V27C302.5 27.5523 302.052 28 301.5 28H300.5C299.948 28 299.5 27.5523 299.5 27V23C299.5 22.4477 299.948 22 300.5 22ZM296 23.5H297C297.552 23.5 298 23.9477 298 24.5V27C298 27.5523 297.552 28 297 28H296C295.448 28 295 27.5523 295 27V24.5C295 23.9477 295.448 23.5 296 23.5Z" fill="black"/>
<path fill-rule="evenodd" clip-rule="evenodd" d="M70.678 28.7902L75.2402 18.25L64.7 22.8122H70.678V28.7902Z" fill="black"/>
</svg>
